<mxfile host="app.diagrams.net" modified="2023-09-28T04:19:48.498Z" agent="Mozilla/5.0 (X11; Linux x86_64) AppleWebKit/537.36 (KHTML, like Gecko) Chrome/117.0.0.0 Safari/537.36" etag="m_o2XXfGrGh-BkvTgLvu" version="21.5.2" type="github">
  <diagram name="Page-1" id="XG9dEOp02Xiiyx47yWDh">
    <mxGraphModel dx="878" dy="532" grid="1" gridSize="10" guides="1" tooltips="1" connect="1" arrows="1" fold="1" page="1" pageScale="1" pageWidth="850" pageHeight="1100" math="0" shadow="0">
      <root>
        <mxCell id="0" />
        <mxCell id="1" parent="0" />
        <mxCell id="vYba0qln4N9HovBGG8Ke-3" value="" style="edgeStyle=orthogonalEdgeStyle;rounded=0;orthogonalLoop=1;jettySize=auto;html=1;" parent="1" source="vYba0qln4N9HovBGG8Ke-1" target="vYba0qln4N9HovBGG8Ke-2" edge="1">
          <mxGeometry relative="1" as="geometry" />
        </mxCell>
        <mxCell id="vYba0qln4N9HovBGG8Ke-1" value="Start" style="ellipse;whiteSpace=wrap;html=1;" parent="1" vertex="1">
          <mxGeometry x="390" y="90" width="120" height="80" as="geometry" />
        </mxCell>
        <mxCell id="vYba0qln4N9HovBGG8Ke-5" value="" style="edgeStyle=orthogonalEdgeStyle;rounded=0;orthogonalLoop=1;jettySize=auto;html=1;" parent="1" source="vYba0qln4N9HovBGG8Ke-2" target="vYba0qln4N9HovBGG8Ke-4" edge="1">
          <mxGeometry relative="1" as="geometry" />
        </mxCell>
        <mxCell id="vYba0qln4N9HovBGG8Ke-2" value="input&amp;nbsp;list of distracting apps" style="shape=parallelogram;perimeter=parallelogramPerimeter;whiteSpace=wrap;html=1;fixedSize=1;" parent="1" vertex="1">
          <mxGeometry x="390" y="190" width="120" height="60" as="geometry" />
        </mxCell>
        <mxCell id="vYba0qln4N9HovBGG8Ke-9" value="" style="edgeStyle=orthogonalEdgeStyle;rounded=0;orthogonalLoop=1;jettySize=auto;html=1;" parent="1" source="vYba0qln4N9HovBGG8Ke-4" target="vYba0qln4N9HovBGG8Ke-8" edge="1">
          <mxGeometry relative="1" as="geometry" />
        </mxCell>
        <mxCell id="vYba0qln4N9HovBGG8Ke-4" value="open app" style="whiteSpace=wrap;html=1;" parent="1" vertex="1">
          <mxGeometry x="390" y="280" width="120" height="60" as="geometry" />
        </mxCell>
        <mxCell id="vYba0qln4N9HovBGG8Ke-11" value="" style="edgeStyle=orthogonalEdgeStyle;rounded=0;orthogonalLoop=1;jettySize=auto;html=1;" parent="1" source="vYba0qln4N9HovBGG8Ke-8" target="vYba0qln4N9HovBGG8Ke-10" edge="1">
          <mxGeometry relative="1" as="geometry" />
        </mxCell>
        <mxCell id="vYba0qln4N9HovBGG8Ke-19" style="edgeStyle=orthogonalEdgeStyle;rounded=0;orthogonalLoop=1;jettySize=auto;html=1;entryX=1;entryY=0.5;entryDx=0;entryDy=0;" parent="1" source="vYba0qln4N9HovBGG8Ke-8" target="vYba0qln4N9HovBGG8Ke-14" edge="1">
          <mxGeometry relative="1" as="geometry">
            <mxPoint x="500" y="680" as="targetPoint" />
            <Array as="points">
              <mxPoint x="571" y="410" />
              <mxPoint x="571" y="690" />
            </Array>
          </mxGeometry>
        </mxCell>
        <mxCell id="vYba0qln4N9HovBGG8Ke-8" value="is it in distracting &lt;br&gt;apps list?" style="rhombus;whiteSpace=wrap;html=1;" parent="1" vertex="1">
          <mxGeometry x="370" y="370" width="160" height="80" as="geometry" />
        </mxCell>
        <mxCell id="vYba0qln4N9HovBGG8Ke-13" value="" style="edgeStyle=orthogonalEdgeStyle;rounded=0;orthogonalLoop=1;jettySize=auto;html=1;" parent="1" source="vYba0qln4N9HovBGG8Ke-10" target="vYba0qln4N9HovBGG8Ke-12" edge="1">
          <mxGeometry relative="1" as="geometry" />
        </mxCell>
        <mxCell id="vYba0qln4N9HovBGG8Ke-10" value="set time limit for&lt;br&gt;this session" style="shape=parallelogram;perimeter=parallelogramPerimeter;whiteSpace=wrap;html=1;fixedSize=1;" parent="1" vertex="1">
          <mxGeometry x="390" y="480" width="120" height="60" as="geometry" />
        </mxCell>
        <mxCell id="vYba0qln4N9HovBGG8Ke-15" value="" style="edgeStyle=orthogonalEdgeStyle;rounded=0;orthogonalLoop=1;jettySize=auto;html=1;" parent="1" source="vYba0qln4N9HovBGG8Ke-12" target="vYba0qln4N9HovBGG8Ke-14" edge="1">
          <mxGeometry relative="1" as="geometry" />
        </mxCell>
        <mxCell id="vYba0qln4N9HovBGG8Ke-12" value="after limit reached,&lt;br&gt;block the app for&amp;nbsp;&lt;br&gt;20 minutes" style="whiteSpace=wrap;html=1;" parent="1" vertex="1">
          <mxGeometry x="390" y="570" width="120" height="60" as="geometry" />
        </mxCell>
        <mxCell id="vYba0qln4N9HovBGG8Ke-14" value="Stop" style="ellipse;whiteSpace=wrap;html=1;" parent="1" vertex="1">
          <mxGeometry x="410" y="650" width="80" height="80" as="geometry" />
        </mxCell>
        <mxCell id="vYba0qln4N9HovBGG8Ke-16" value="Yes" style="text;html=1;align=center;verticalAlign=middle;resizable=0;points=[];autosize=1;strokeColor=none;fillColor=none;" parent="1" vertex="1">
          <mxGeometry x="450" y="450" width="40" height="30" as="geometry" />
        </mxCell>
        <mxCell id="vYba0qln4N9HovBGG8Ke-20" value="No" style="text;html=1;align=center;verticalAlign=middle;resizable=0;points=[];autosize=1;strokeColor=none;fillColor=none;" parent="1" vertex="1">
          <mxGeometry x="520" y="378" width="40" height="30" as="geometry" />
        </mxCell>
      </root>
    </mxGraphModel>
  </diagram>
</mxfile>
